<mxfile host="app.diagrams.net" modified="2023-05-10T02:37:08.386Z" agent="Mozilla/5.0 (Windows NT 10.0; Win64; x64) AppleWebKit/537.36 (KHTML, like Gecko) Chrome/112.0.0.0 Safari/537.36" version="21.2.6" etag="2HdJCv4Qy5XkeuLCA7zK" type="github">
  <diagram name="Page-1" id="gWAZc-sNZe4aPi-GWydx">
    <mxGraphModel>
      <root>
        <mxCell id="0" />
        <mxCell id="1" parent="0" />
      </root>
    </mxGraphModel>
  </diagram>
</mxfile>
